<?xml version="1.0" encoding="UTF-8"?> <!-- Generator: Adobe Illustrator 25.0.0, SVG Export Plug-In . SVG Version: 6.00 Build 0) --> <svg xmlns="http://www.w3.org/2000/svg" xmlns:xlink="http://www.w3.org/1999/xlink" id="Layer_1" x="0px" y="0px" viewBox="0 0 700 700" style="enable-background:new 0 0 700 700;" xml:space="preserve"> <style type="text/css"> .st0{opacity:0.44;} .st1{fill:#6D6E71;} .st2{fill:#FFFFFF;} </style> <g> <g class="st0"> <path class="st1" d="M223.1,605.5c9.1-1.9,17-4.1,24.1-6.8c7.4-2.8,15.4-6.2,24.2-10.3c12.6-5.8,25.3-12.8,40-21.9 c5.4-3.3,10.7-6.8,16-10.2l3.1-2c4.7-3,9.5-5.9,14.2-8.7l4.8-2.9c4.7-2.8,9.6-5.6,14.4-8.3l6.2-3.5c6.9-4,13.6-8.3,19.1-12 c13.4-8.9,26.4-18.8,37.8-27.5c4.9-3.7,9.8-7.5,14.6-11.2c7.9-6,15.7-12.1,23.7-18.1c10.5-7.9,21.8-16,34.5-24.8l6.4-4.2 c7.3-4.8,14.9-9.8,22.1-15l2.6-1.8c3.8-2.7,7.7-5.5,11.3-8.5c5.3-4.3,9.4-7.8,13.2-11.1c4.3-3.9,8.6-7.8,12.8-11.8 c1.8-1.7,3.5-3.4,5.2-5.1c1.6-1.6,3.3-3.3,5-4.9c5.3-5,9.7-9.1,13.8-12.7c1.5-1.3,3-2.6,4.5-3.9c3.9-3.3,8-6.8,11.4-10.6 c2.6-2.9,4.8-5.4,6.4-8.8c1.3-2.6,2.1-4.5,2.6-7.2c0.2-1,0.3-2,0.3-3.1c0-1.8-0.3-3.6-0.8-5.3c-0.8-2.5-1.8-5.4-3.5-7.4 c-3.4-4-6.8-7.6-10.5-11c-2.1-1.9-4.2-3.9-6.3-5.9c-3.3-3.1-6.8-6.4-10.3-9.4c-6.9-6-12.5-10.4-17.9-14.2 c-6.4-4.5-13.5-8.8-22.9-13.9c-13.3-7.2-27.8-13.1-41.7-18.7l-0.8-0.3c-5.7-2.3-11.9-4.7-19.6-7.4l-0.6-0.4l-0.6-0.4 c-2-1.2-4.1-2.4-6.1-3.5l-2.3-1.3l-1.8-1.1c-2.1-1.2-4.2-2.4-6.4-3.6c-3.6-1.9-7.2-3.7-10.9-5.5c-2.3-1.2-4.7-2.3-7-3.5 c-5.9-3-12.1-5.9-18-8.6l-0.7-0.4c-1-0.4-1.9-0.9-2.8-1.3c-2.1-1-4.3-2-6.6-2.9c-0.9-0.4-1.8-0.7-2.7-1 c-9-5.4-19.8-11.6-31.4-16.9c-7.1-3.3-14.4-6.5-21.5-9.5c-7.6-3.3-15-6.9-21.3-10c-5.3-2.6-10.5-5.4-15.6-8.1l-4.1-2.2 c-6.9-3.7-13.9-7.2-20.5-10.5c-5.9-3-12.9-6.3-20.3-9c-7.4-2.6-14.8-5.2-22.1-7.7c-3.3-1.2-6.5-2.4-9.8-3.7 c-8.6-3.2-17.4-6.6-26.3-9.5c-3.2-1-6.5-1.9-9.8-2.8c-1.9-0.5-3.7-1-5.5-1.6c-3.9-1.1-7.8-2.4-11.7-3.7l-5.4-2 c-2.8-1-5.5-2.2-8.2-3.3l-2.1-0.9l-0.9-0.4c-1.5-0.6-3-1.2-4.5-1.8c-0.9-0.3-1.9-0.7-2.8-1.1c-3-1.2-6.1-2.4-9.3-3 c-2.7-0.6-5.5-1-8.1-1.3c-2.9-0.4-5.8-0.4-8.7,0.1c-3.1,0.1-6.4,0.7-9.9,1.9c-7.4,2.4-15.8,7.7-17.3,15.4 c-0.2,1.2-0.3,2.4-0.3,3.7c0,3,0.5,6.1,0.9,8.2c0.7,3.5,1.5,6.9,2.3,10.3c0.7,2.9,1.4,5.8,2,8.7c1.5,7.5,2.7,14.8,3.6,20.5 c0.6,4,1.2,7.9,1.9,11.9c1.5,9.5,3.1,19.2,4.2,28.9c1.6,13.3,3,27.2,4.3,41.4c0.9,9.5,1.5,19.2,2,28.6c0.3,5,0.6,9.9,0.9,14.9 c0.5,7.7,1.2,15.4,2,23c0.6,6.1,1.1,12.1,1.6,18.2l0.9,12.4c1.8,24,3.7,48.9,6.5,73.2l0.3,3.1c1.4,12.7,2.9,25.8,3.6,38.8 c0.7,14.1,1.2,28.1,1.7,42.5c0.1,3.9,0.3,7.9,0.4,11.8c0.3,9.8,0.6,19.9,1.2,29.8c0.4,7.3,1.3,14.5,2.1,20.7l0.5,4.5 c0.7,5.5,1.3,11.2,2.6,16.7l0.4,2c1.2,5.4,2.4,11.1,6.4,15.3c2.8,3,7.5,5.3,12.8,6.4c5.1,1,9.3,1.5,13.2,1.5 C206.6,607.3,214.9,607.2,223.1,605.5z M333.1,400.7c-2.5-9.3-4.5-18.8-6.3-28.1l-0.7-3.3c-1.7-8.5-3.3-17.3-4.7-25.7l-1.4-7.7 l-1.3-7.1c-1.6-8.6-3.2-17.6-4.4-26.4c-1.2-9.2-1.9-18.5-2.1-27.7c0.4-3.2,1-6.4,1.5-9c0.2-1,0.4-2,0.6-2.9 c20.2,7.9,38.8,19.2,56.8,30.1l1.4,0.9l1.5,0.9c10,6.1,20.4,12.3,31.1,17.6c2.9,1.4,6,2.6,9,3.8c2.4,0.9,4.7,1.8,7,2.9 c5.7,2.6,10.6,5.1,14.9,7.6c2.8,1.9,5.2,3.8,7.2,5.9c0.7,0.9,1.3,1.9,1.8,2.9l0.1,0.6c-0.1,0.5-0.2,1-0.4,1.6 c-1.5,2.5-3.5,4.8-5.4,7c-0.6,0.8-1.3,1.5-1.9,2.3c-0.8,1-1.6,2-2.4,3c-0.8,1-1.7,2.1-2.5,3.1c-4.1,4-8.8,7.4-12.7,10.1 c-11.2,7.5-23.8,15.1-39.8,24c-6.9,3.8-13.6,7.8-20,12c-3.7,2.4-7.4,4.8-11,7.2c-3.8,2.4-7.8,5-12,7.1 C335.7,409.1,334.2,404.9,333.1,400.7z"></path> </g> <g> <path class="st2" d="M139.8,246.1c0,7.3,0.2,13.9,0.7,18.7h-5.2c-3.2-31.6-6.6-42.5-35-42.5H87.9v129.4c0,18.4,3.9,21.2,23,21.9 v4.6c-8-0.4-21.1-0.7-33.4-0.7c-13.7,0-26.4,0.2-33.6,0.7v-4.6c19.1-0.7,23-3.4,23-21.9V222.3H54.5c-28.4,0-31.9,10.9-35,42.5 h-5.2c0.4-4.8,0.7-11.3,0.7-18.7c0-5.7-0.4-17.5-1.7-29.1c18.9,0.7,45.5,0.7,64.2,0.7s45,0,63.8-0.7 C140.2,228.6,139.8,240.5,139.8,246.1z"></path> <path class="st2" d="M275.5,378c-15.4-0.7-36.9-0.7-52.1-0.7c-13.7,0-43.6,0-66,0.7v-4.6c15.4-0.7,18.4-3,18.4-19.5V241.1 c0-16.5-3-18.9-18.4-19.5V217c22.3,0.7,52.3,0.7,66,0.7c13.9,0,33.4,0,47.5-0.7c-1.1,10.7-1.6,21.7-1.6,26.9 c0,5.4,0.2,10.7,0.7,14.1h-5.2c-3-26.9-6.4-35.8-30.5-35.8h-18.9c-15.4,0-18.4,2.3-18.4,18.9v53.6h15.1c19.8,0,19.3-19.1,21.1-30 h5.2c-0.7,9.7-0.8,16.2-0.8,21.4c0,4.2,0.1,7.6,0.1,10.9c0,7.4,0.2,15,1.3,32.3h-5.2c-1.8-14.5-2-30.1-21.8-30.1H197v54.6 c0,16.5,3,18.9,18.4,18.9h16.7c28.4,0,34.1-10.2,37.3-40.3h5.2c-0.4,4.1-0.7,10.1-0.7,16.4C274,354.6,274.4,366.5,275.5,378z"></path> <path class="st2" d="M415.3,358.9c4.6,11.5,11,14.3,15.8,14.5v4.6c-6.2-0.4-15.8-0.7-24.4-0.7c-11.8,0-22.7,0.2-29.1,0.7v-4.6 c11-0.4,16.1-2.1,16.1-8.4c0-2.7-0.9-6.1-2.7-10.7l-14-37.3h-54.9l-9.3,24.1c-3.1,7.9-4.6,14-4.6,18.7c0,9.9,6.8,13.3,19.8,13.7 v4.6c-8.7-0.4-18.2-0.7-26.2-0.7c-7.7,0-12.4,0.2-17,0.7v-4.6c5.9-1.3,12.7-6.1,17.9-19.8l53.5-137.8h3.7L415.3,358.9z M349.9,244.7l-26.1,67.8h51.5L349.9,244.7z"></path> <path class="st2" d="M552,246.1c0,7.3,0.2,13.9,0.7,18.7h-5.2c-3.2-31.6-6.6-42.5-35-42.5h-12.3v129.4c0,18.4,3.9,21.2,23,21.9 v4.6c-8-0.4-21.1-0.7-33.4-0.7c-13.7,0-26.4,0.2-33.6,0.7v-4.6c19.1-0.7,23-3.4,23-21.9V222.3h-12.3c-28.4,0-31.9,10.9-35,42.5 h-5.2c0.4-4.8,0.7-11.3,0.7-18.7c0-5.7-0.4-17.5-1.7-29.1c18.9,0.7,45.5,0.7,64.2,0.7c18.7,0,45,0,63.8-0.7 C552.5,228.6,552,240.5,552,246.1z"></path> <path class="st2" d="M609.3,353.9c0,16.5,3.9,18.9,23,19.5v4.6c-7.9-0.4-21.1-0.7-33.4-0.7c-11.8,0-22.8,0.2-29.1,0.7v-4.6 c15.4-0.7,18.4-3,18.4-19.5V241.1c0-16.5-3-18.9-18.4-19.5V217c6.3,0.4,17.8,0.7,27.8,0.7c14.3,0,28.9-0.4,34.3-0.4 c36.6,0,54.9,18.4,54.9,44.9c0,22-12.8,50.9-59.8,50.9h-17.5V353.9z M609.3,241.1v67.3h15.3c32.2,0,39.3-20.7,39.3-43.9 c0-28.6-10.2-43-37.8-43C612.3,221.6,609.3,225.5,609.3,241.1z"></path> <path class="st2" d="M62.3,481.8c0.6,0.1,1.6,0.2,2.7,0.2c3.1,0,5.6-0.9,7.5-2.8c1.9-1.8,2.9-4.4,2.9-7.8c0-2.2-0.4-4.3-1.2-6.4 s-2.2-4.5-4.1-7.1c-2.3-3.1-4-5.7-5.1-7.7c-1.1-2-1.6-4.4-1.6-7.1c0-2.8,0.7-5.3,2.1-7.5c1.4-2.2,3.4-3.9,5.8-5.2 c2.4-1.2,5.1-1.8,7.9-1.8c3.5,0,6.5,0.7,8.9,2c2.4,1.3,3.6,3.6,3.6,6.9c0,1.2-0.4,2.4-1.2,3.6c-0.8,1.2-2,1.7-3.5,1.7 c-1.2,0-2.1-0.4-2.9-1.2c-0.8-0.8-1.2-1.8-1.2-3.1c0-2.2,1-4.5,2.9-6.9c-1.3-0.8-3-1.2-5.1-1.2c-2.6,0-4.7,0.9-6.4,2.6 c-1.7,1.7-2.5,4.1-2.5,7.1c0,1.8,0.3,3.3,0.9,4.6c0.6,1.3,1.7,3.1,3.4,5.6l1.8,2.7c2,3.1,3.6,5.8,4.6,8.1c1,2.3,1.5,4.6,1.5,7 c0,3.1-0.8,5.8-2.4,8.3c-1.6,2.5-3.8,4.4-6.4,5.7c-2.7,1.4-5.6,2-8.7,2c-3.9,0-7.2-0.8-9.8-2.5c-2.7-1.7-4-4.2-4-7.6 c0-1.2,0.3-2.2,1-3.2c0.6-1,1.7-1.4,3-1.4c1.5,0,2.6,0.6,3.4,1.8c0.7,1.2,1.1,2.8,1.1,4.6c0,1.2-0.2,2.9-0.7,5.3 C60.9,481.4,61.6,481.7,62.3,481.8z"></path> <path class="st2" d="M126.5,449.9c-6.2,4.2-13.3,7.5-21.3,10.1c-0.8,3.4-1.1,6.7-1.1,9.9c0,6.5,2.4,9.8,7.1,9.8 c5.9,0,11.1-3.4,15.8-10.2l1.6,0.8c-2.2,3.8-5.1,7-8.9,9.7c-3.7,2.7-7.6,4-11.7,4c-4.2,0-7.5-1.2-9.9-3.7c-2.4-2.5-3.6-6-3.6-10.7 c0-5.2,1.5-11,4.6-17.6c3-6.5,7.1-12.1,12.3-16.6c5.2-4.6,10.8-6.9,16.9-6.9c2.2,0,4,0.6,5.4,1.7c1.4,1.2,2.1,2.8,2.1,5 C135.8,440.9,132.7,445.7,126.5,449.9z M118.6,434.4c-2.7,2.6-5.2,6-7.6,10.2c-2.4,4.2-4.1,8.7-5.4,13.5 c6.5-2.3,11.1-4.4,13.9-6.5c2.5-2,4.5-4.4,5.9-7.2c1.4-2.8,2.1-5.9,2.1-9.2c0-1.8-0.1-3.1-0.4-3.7c-0.3-0.6-0.7-0.9-1.2-0.9 C123.8,430.6,121.3,431.8,118.6,434.4z"></path> <path class="st2" d="M160,436.2c-3.4,3.7-6.1,8.6-8.3,14.6c-2.1,6.1-3.2,12.5-3.2,19.1c0,3.3,0.6,5.8,1.9,7.4 c1.3,1.6,3,2.4,5.3,2.4c5.6,0,10.7-3.4,15.3-10.2l2,0.8c-2.2,3.8-5.1,7-8.9,9.7c-3.7,2.7-7.6,4-11.7,4c-4.2,0-7.5-1.3-9.9-3.8 c-2.4-2.6-3.6-6.3-3.6-11.2c0-5.5,1.3-11.5,3.9-17.8c2.6-6.3,6.2-11.7,11-16.1c4.7-4.4,10.1-6.5,16.1-6.5c3.1,0,5.8,0.8,7.9,2.4 c2.1,1.6,3.2,3.7,3.2,6.3c0,2.1-0.7,4-2,5.7c-1.4,1.7-3.1,2.5-5.2,2.5c-1.4,0-2.4-0.4-3.1-1.1c-0.7-0.7-1.1-1.7-1.1-2.9 c0-1.9,0.8-3.6,2.3-5c1.5-1.4,3.3-2.3,5.4-2.7c-1.4-2.1-3.8-3.2-7-3.2C166.7,430.7,163.4,432.5,160,436.2z"></path> <path class="st2" d="M231,466.1l-2.6,7.5c-2.5,7-6.6,10.5-12.4,10.5c-4.8,0-7.2-2.1-7.2-6.3c0-2,0.5-4.7,1.6-8l9.7-29.3 c0.7-1.9,1-3.6,1-5.1c0-2.3-1.1-3.5-3.3-3.5c-2.5,0-5.2,1.6-8.1,4.8c-2.9,3.2-5.8,7.6-8.7,13.4c-2.9,5.7-5.7,12.4-8.2,20 l-3.7,12.7h-8.9l20.3-68.3c0.3-1.2,0.5-2.1,0.5-2.8c0-1.4-0.5-2.4-1.6-3c-1.1-0.6-2.9-1-5.4-1l0.6-2.1c7.1-0.1,13.2-1.5,18.4-4.2 L198.3,452c3.7-8.3,7.4-14.3,11.1-18c3.7-3.6,7.7-5.5,12.1-5.5c5.5,0,8.3,2.6,8.3,7.8c0,2.2-0.5,4.7-1.5,7.7l-9.9,29.9 c-0.5,1.6-0.8,2.9-0.8,3.9c0,1.6,0.8,2.5,2.5,2.5c1.4,0,2.7-0.8,3.9-2.3c1.3-1.5,2.6-4.2,3.9-8.1l1.3-3.8H231z"></path> <path class="st2" d="M269.4,449.9c-6.2,4.2-13.3,7.5-21.3,10.1c-0.8,3.4-1.1,6.7-1.1,9.9c0,6.5,2.4,9.8,7.1,9.8 c5.9,0,11.1-3.4,15.8-10.2l1.6,0.8c-2.2,3.8-5.1,7-8.9,9.7c-3.7,2.7-7.6,4-11.7,4c-4.2,0-7.5-1.2-9.9-3.7c-2.4-2.5-3.6-6-3.6-10.7 c0-5.2,1.5-11,4.6-17.6c3-6.5,7.1-12.1,12.3-16.6c5.2-4.6,10.8-6.9,16.9-6.9c2.2,0,4,0.6,5.4,1.7c1.4,1.2,2.1,2.8,2.1,5 C278.7,440.9,275.6,445.7,269.4,449.9z M261.6,434.4c-2.7,2.6-5.2,6-7.6,10.2c-2.4,4.2-4.1,8.7-5.4,13.5 c6.5-2.3,11.1-4.4,13.9-6.5c2.5-2,4.5-4.4,5.9-7.2c1.4-2.8,2.1-5.9,2.1-9.2c0-1.8-0.1-3.1-0.4-3.7c-0.3-0.6-0.7-0.9-1.2-0.9 C266.7,430.6,264.3,431.8,261.6,434.4z"></path> <path class="st2" d="M334.3,466.1l-2.6,7.5c-2.5,7-6.6,10.5-12.4,10.5c-3.1,0-5.2-1-6.4-3c-0.5-0.8-0.8-1.9-0.8-3.4 c0-1.8,0.6-4.5,1.7-8l9.7-29.3c0.7-2.3,1-3.9,1-5c0-2.4-1.1-3.6-3.3-3.6c-2.6,0-5.5,1.9-8.9,5.7c-3.3,3.8-6.6,9-9.8,15.6 c-3.2,6.6-6,14-8.3,22l-1.8,7.5h-8.9l12.3-43.9c0.5-1.8,0.7-3,0.7-3.8c0-1.7-0.8-2.6-2.3-2.6c-1.5,0-2.8,0.8-4,2.3 c-1.2,1.5-2.5,4.2-3.9,8.2l-1.3,3.8h-1.9l2.6-7.5c2.5-7,6.5-10.5,12.2-10.5c2.2,0,3.7,0.5,4.7,1.6c0.9,1.1,1.4,2.5,1.4,4.5 c0,1.8-0.5,4.6-1.4,8.3l-3.6,14c4.4-10.3,8.5-17.6,12.5-21.9c4-4.3,8.4-6.4,13.1-6.4c5.5,0,8.3,2.6,8.3,7.7c0,2.3-0.5,4.8-1.5,7.8 l-9.9,29.9c-0.5,1.6-0.8,2.9-0.8,3.9c0,1.6,0.8,2.5,2.5,2.5c1.4,0,2.7-0.8,3.9-2.3c1.3-1.5,2.6-4.2,3.9-8.1l1.3-3.8H334.3z"></path> <path class="st2" d="M345.1,450.7c2.4-6.2,5.8-11.4,10.3-15.7c4.5-4.3,9.7-6.4,15.7-6.4c4.4,0,7.8,1.3,10.3,4 c2.5,2.7,3.7,6.7,3.7,12c0,5.4-1.2,11.2-3.6,17.3c-2.4,6.2-5.8,11.4-10.3,15.7c-4.5,4.3-9.7,6.4-15.7,6.4c-4.4,0-7.8-1.3-10.3-4 c-2.5-2.7-3.7-6.7-3.7-12C341.6,462.6,342.8,456.8,345.1,450.7z M360.6,437.3c-3.1,4.4-5.6,10-7.5,16.6c-1.9,6.7-2.8,13-2.8,19.2 c0,3.1,0.5,5.3,1.4,6.8c1,1.4,2.4,2.1,4.4,2.1c3.5,0,6.8-2.2,9.9-6.7c3.1-4.4,5.6-10,7.5-16.6c1.9-6.7,2.8-13,2.8-19.2 c0-3.1-0.5-5.3-1.4-6.8c-1-1.4-2.4-2.1-4.4-2.1C367,430.7,363.7,432.9,360.6,437.3z"></path> <path class="st2" d="M432.5,439.7c-1.4-1.8-2.1-3.8-2.1-6.1c0-1.7,0.5-3,1.4-3.8c0.9-0.8,2-1.2,3.1-1.2c1.9,0,3.3,0.9,4.3,2.8 c1,1.8,1.4,4.4,1.4,7.6c0,1.8-0.1,3.1-0.2,4.1c-0.8,7-2.6,13.7-5.4,20c-2.8,6.3-6.4,11.4-11.1,15.3c-4.6,3.9-9.9,5.9-15.9,5.9 c-4.3,0-7.4-1.2-9.2-3.7c-1.8-2.5-2.7-5.5-2.5-9c0.4-5.6,2.7-11.8,7-18.7c4.3-6.9,9.8-13.6,16.7-20.2c-1.7,0.7-3.7,1.7-5.8,3.1 c-1.7,1.1-3.2,1.9-4.4,2.5c-1.2,0.6-2.3,0.9-3.3,0.9c-0.8,0-1.5-0.2-2.1-0.6c-0.7-0.4-1.1-0.6-1.3-0.7c-1.2-0.8-2.2-1.2-3-1.2 c-1.1,0-2,0.5-2.7,1.4c-0.7,0.9-1.5,2.6-2.3,5l-1.1,3.8h-1.9l2.3-7.5c1.9-7,5.1-10.4,9.6-10.4c0.9,0,1.6,0.2,2.3,0.5 c0.6,0.3,1.4,0.8,2.4,1.5c0.9,0.7,1.7,1.2,2.4,1.5c0.7,0.3,1.5,0.5,2.4,0.5c3.4,0,6.3-1.1,8.6-3.2l1-1.9l2.1,1 c-5.5,6.8-9.8,13.6-12.9,20.4c-3.1,6.8-4.9,13.7-5.5,20.8c-0.1,0.6-0.1,1.4-0.1,2.5c0,5.7,1.5,8.6,4.5,8.6c5,0,9.5-2.1,13.5-6.2 c4-4.2,7.2-9.2,9.5-15c2.3-5.8,3.6-11,3.8-15.6C435.7,442.8,434,441.4,432.5,439.7z"></path> <path class="st2" d="M446.1,473.4c1.5-1.6,3.3-2.4,5.3-2.4c1.6,0,2.8,0.5,3.8,1.5c1,1,1.4,2.3,1.4,3.8c0,2-0.8,3.9-2.4,5.4 c-1.6,1.6-3.3,2.4-5.3,2.4c-1.5,0-2.7-0.5-3.7-1.5c-1-1-1.4-2.2-1.4-3.7C443.8,476.8,444.6,475,446.1,473.4z"></path> <path class="st2" d="M491.7,436.2c-3.4,3.7-6.1,8.6-8.3,14.6c-2.1,6.1-3.2,12.5-3.2,19.1c0,3.3,0.6,5.8,1.9,7.4 c1.3,1.6,3,2.4,5.3,2.4c5.6,0,10.7-3.4,15.3-10.2l2,0.8c-2.2,3.8-5.1,7-8.9,9.7c-3.7,2.7-7.6,4-11.7,4c-4.2,0-7.5-1.3-9.9-3.8 c-2.4-2.6-3.6-6.3-3.6-11.2c0-5.5,1.3-11.5,3.9-17.8c2.6-6.3,6.2-11.7,11-16.1c4.7-4.4,10.1-6.5,16.1-6.5c3.1,0,5.8,0.8,7.9,2.4 c2.1,1.6,3.2,3.7,3.2,6.3c0,2.1-0.7,4-2,5.7c-1.4,1.7-3.1,2.5-5.2,2.5c-1.4,0-2.4-0.4-3.1-1.1c-0.7-0.7-1.1-1.7-1.1-2.9 c0-1.9,0.8-3.6,2.3-5c1.5-1.4,3.3-2.3,5.4-2.7c-1.4-2.1-3.8-3.2-7-3.2C498.5,430.7,495.1,432.5,491.7,436.2z"></path> <path class="st2" d="M518.8,450.7c2.4-6.2,5.8-11.4,10.3-15.7c4.5-4.3,9.7-6.4,15.7-6.4c4.4,0,7.8,1.3,10.3,4 c2.5,2.7,3.7,6.7,3.7,12c0,5.4-1.2,11.2-3.6,17.3c-2.4,6.2-5.8,11.4-10.3,15.7c-4.5,4.3-9.7,6.4-15.7,6.4c-4.4,0-7.8-1.3-10.3-4 c-2.5-2.7-3.7-6.7-3.7-12C515.2,462.6,516.4,456.8,518.8,450.7z M534.3,437.3c-3.1,4.4-5.6,10-7.5,16.6c-1.9,6.7-2.8,13-2.8,19.2 c0,3.1,0.5,5.3,1.4,6.8c1,1.4,2.4,2.1,4.4,2.1c3.5,0,6.8-2.2,9.9-6.7c3.1-4.4,5.6-10,7.5-16.6c1.9-6.7,2.8-13,2.8-19.2 c0-3.1-0.5-5.3-1.4-6.8c-1-1.4-2.4-2.1-4.4-2.1C540.7,430.7,537.4,432.9,534.3,437.3z"></path> <path class="st2" d="M640.7,466.1l-2.6,7.5c-2.5,7-6.6,10.5-12.4,10.5c-3.1,0-5.2-0.9-6.3-2.8c-0.6-1-0.9-2.2-0.9-3.6 c0-1.8,0.6-4.5,1.7-8l9.7-29.3c0.7-2,1-3.9,1-5.4c0-2.1-0.8-3.2-2.3-3.2c-3.9,0-8.3,4.5-13.1,13.4c-4.9,8.9-9.6,20.7-14.2,35.4 l0.1-0.6l-0.7,2.7h-9.2l12.8-42.2c0.7-2,1-3.8,1-5.2c0-2.3-1-3.4-2.9-3.4c-2.5,0-5.4,2-8.5,6s-6.2,9.4-9.3,16.3 c-3,6.9-5.7,14.5-7.9,22.8l-1.4,5.6h-8.9l12.3-43.9c0.5-1.9,0.7-3.2,0.7-3.8c0-1.7-0.7-2.6-2.1-2.6c-1.5,0-2.9,0.8-4.1,2.4 c-1.3,1.6-2.5,4.3-3.8,8l-1.3,3.8h-1.9l2.6-7.5c2.5-7,6.6-10.5,12.4-10.5c4,0,5.9,2,5.9,6.1c0,1.8-0.5,4.5-1.5,8.2l-3.3,13 c4.1-10,7.9-17,11.6-21.1c3.6-4.1,7.7-6.2,12.2-6.2c4.5,0,6.8,2.4,6.8,7.2c0,2.1-0.5,4.9-1.4,8.3l-3.7,13.7 c2.9-7.2,5.6-12.8,8.1-17c2.5-4.2,5.1-7.3,7.7-9.2c2.6-1.9,5.5-2.9,8.7-2.9c4.8,0,7.2,2.6,7.2,7.7c0,2.2-0.5,4.8-1.4,7.8 l-9.9,29.9c-0.5,1.8-0.8,3.1-0.8,3.9c0,1.6,0.8,2.5,2.5,2.5c1.4,0,2.7-0.8,3.9-2.3c1.3-1.5,2.6-4.2,3.9-8.1l1.3-3.8H640.7z"></path> </g> </g> </svg> 