<?xml version="1.0" encoding="UTF-8"?> <!-- Generator: Adobe Illustrator 25.1.0, SVG Export Plug-In . SVG Version: 6.00 Build 0) --> <svg xmlns="http://www.w3.org/2000/svg" xmlns:xlink="http://www.w3.org/1999/xlink" id="Layer_1" x="0px" y="0px" viewBox="0 0 100 100" style="enable-background:new 0 0 100 100;" xml:space="preserve"> <style type="text/css"> .st0{fill:#EF3842;} </style> <path class="st0" d="M50,2.5C23.8,2.5,2.5,23.8,2.5,50S23.8,97.5,50,97.5S97.5,76.2,97.5,50S76.2,2.5,50,2.5z M73.7,32.7l-8.1,37.9 c-0.6,2.7-2.2,3.3-4.5,2.1l-12.3-9l-6,5.7c-0.7,0.7-1.2,1.2-2.5,1.2l0.9-12.5l22.8-20.5c1-0.9-0.2-1.4-1.5-0.5L34.3,54.8L22.1,51 c-2.6-0.8-2.7-2.6,0.6-3.9l47.6-18.2C72.5,28.1,74.4,29.4,73.7,32.7z"></path> </svg> 